<svg width="1024" height="1024" viewBox="0 0 1024 1024" fill="none" xmlns="http://www.w3.org/2000/svg">
<g clip-path="url(#clip0_1_2)">
<path d="M872 307.181H153C122.624 307.181 98 331.805 98 362.181V745.201C98 775.577 122.624 800.201 153 800.201H872C902.376 800.201 927 775.577 927 745.201V362.181C927 331.805 902.376 307.181 872 307.181Z" stroke="currentColor" stroke-width="7.06" stroke-miterlimit="10" fill="none"/>
<path d="M508.88 437.011C594.75 546.641 539.99 705.531 407.51 744.151C241.09 791.221 98.5 621.141 173.79 465.461C207.61 396.611 279.2 353.191 355.82 354.571C408.23 356.421 459.1 380.171 493.95 419.211C457.66 382.711 406.95 361.621 355.69 361.741C281.97 360.071 212.55 402.381 180.11 468.591C121.15 587.861 200.06 730.561 332.45 744.011C469.93 757.941 574.11 627.481 536.82 495.951C530.9 474.951 521.34 454.921 508.88 437.011Z" fill="currentColor"/>
<path d="M672.43 335.161C672.05 335.191 671.23 335.631 670.17 336.321C669.12 336.961 668.7 337.321 668.26 337.631C667.57 338.131 666.82 338.681 666.04 339.271L660.31 320.711C660.38 320.731 660.45 320.751 660.45 320.751C660.45 320.751 666.5 314.361 671.47 307.411C673.69 304.311 663.63 296.361 661.41 296.611C660.6 296.701 657.88 298.771 654.77 301.371L646.14 273.481C655.67 260.021 669.46 246.741 676.14 231.551C683.81 214.101 684.17 195.321 659.75 208.341C642.86 217.341 631.6 239.691 618.59 253.271L591.93 252.201C593.42 249.551 594.57 247.131 594.67 245.811C594.97 242.011 581.47 239.531 579.38 240.321C578.31 240.731 574.62 245.751 571.3 250.651L552.31 250.221C554.31 246.861 556.05 243.531 556.17 241.901C556.47 238.101 542.97 235.621 540.88 236.411C539.67 236.871 535.08 243.271 531.49 248.691L505.82 247.911L494.26 260.421L587.94 292.151L557.8 338.841L511.95 338.251C510.03 341.231 500.35 348.761 506.35 350.491L544.31 363.131C538.03 376.561 542.97 380.791 555.04 371.941L578.25 408.291L586.96 396.091L576.34 352.481L613.39 314.251L615.74 315.501L666.38 397.681C667.88 397.891 667.92 397.101 668.65 396.451C669.56 395.651 677.14 386.101 677.49 385.281C679.83 379.831 671.86 364.721 671.42 358.191C674.03 355.691 680.91 348.901 682.1 345.881C683.5 342.331 674.64 334.981 672.41 335.141L672.43 335.161Z" fill="currentColor"/>
<path d="M220.32 695.831L258.88 725.011C345.21 690.581 477.7 483.551 477.7 483.551C360.72 648.201 220.32 695.831 220.32 695.831ZM285.85 694.041L281.72 703.931L279.27 693.511L268.62 692.661L277.76 687.071L275.31 676.651L283.41 683.621L292.55 678.031L288.42 687.921L296.52 694.891L285.87 694.041H285.85ZM315.09 672.781L312.15 681.181L309.61 672.671L300.73 672.491L308.03 667.411L305.49 658.901L312.55 664.271L319.85 659.191L316.91 667.591L323.97 672.961L315.09 672.781ZM339.11 651.381L337.7 658.441L334.7 651.911L327.57 652.771L332.85 647.871L329.85 641.341L336.11 644.841L341.39 639.941L339.98 647.001L346.24 650.501L339.11 651.361V651.381ZM356.9 633.761L355.84 639.071L353.58 634.161L348.21 634.811L352.18 631.131L349.92 626.221L354.63 628.861L358.6 625.181L357.54 630.491L362.25 633.121L356.88 633.771L356.9 633.761ZM371.23 619.161L370.36 623.521L368.51 619.491L364.11 620.021L367.37 617.001L365.52 612.971L369.39 615.131L372.65 612.111L371.78 616.471L375.65 618.631L371.25 619.161H371.23ZM382.58 606.781L382.04 609.491L380.89 606.981L378.15 607.311L380.18 605.431L379.03 602.921L381.44 604.271L383.47 602.391L382.93 605.101L385.34 606.451L382.6 606.781H382.58ZM390.96 597.091L390.68 598.501L390.08 597.191L388.65 597.361L389.7 596.381L389.1 595.071L390.35 595.771L391.4 594.791L391.12 596.201L392.37 596.901L390.94 597.071L390.96 597.091Z" fill="currentColor"/>
<path d="M158.93 539.911C159.21 553.001 158.43 577.471 162.47 593.821C196.99 592.361 336.49 577.151 464.32 434.481C464.32 434.481 355.93 539.731 158.93 539.921V539.911ZM218.85 580.001L205.67 572.691L194.65 582.971L197.53 568.171L184.35 560.861L199.31 559.021L202.19 544.221L208.56 557.881L223.52 556.041L212.5 566.321L218.87 579.981L218.85 580.001ZM265.44 564.651L254.83 560.681L247.77 569.551L248.27 558.231L237.66 554.261L248.58 551.241L249.08 539.921L255.33 549.371L266.25 546.351L259.19 555.221L265.44 564.671V564.651ZM300.08 550.871L291.09 548.101L285.68 555.801L285.53 546.391L276.54 543.621L285.44 540.571L285.29 531.161L290.94 538.691L299.84 535.641L294.43 543.341L300.08 550.871ZM323.69 535.261L320.23 542.041L319.05 534.521L311.53 533.321L318.32 529.871L317.14 522.351L322.52 527.741L329.31 524.291L325.85 531.071L331.23 536.461L323.71 535.261H323.69ZM345.35 522.631L342.74 527.731L341.85 522.071L336.19 521.171L341.3 518.581L340.41 512.921L344.46 516.971L349.57 514.381L346.96 519.481L351.01 523.531L345.35 522.631ZM364.7 512.181L362.56 516.361L361.83 511.721L357.19 510.981L361.38 508.851L360.65 504.211L363.97 507.541L368.16 505.411L366.02 509.591L369.34 512.921L364.7 512.181ZM379.85 502.171L378.52 504.781L378.07 501.891L375.18 501.431L377.79 500.101L377.34 497.211L379.41 499.281L382.02 497.951L380.69 500.561L382.76 502.631L379.87 502.171H379.85ZM391.19 494.741L390.5 496.091L390.26 494.591L388.76 494.351L390.12 493.661L389.88 492.161L390.95 493.241L392.31 492.551L391.62 493.901L392.69 494.981L391.19 494.741Z" fill="currentColor"/>
<path d="M294.22 738.621C309.16 742.281 334.6 746.721 352.06 747.701C377.64 705.541 418.27 631.831 443.42 559.801C443.42 559.801 383.85 667.811 294.22 738.621ZM346.99 723.221L345.74 732.231L341.54 724.161L332.72 725.681L338.94 719.171L334.74 711.101L342.79 715.151L349.01 708.641L347.76 717.651L355.81 721.701L346.99 723.221ZM366.16 699.601L365.57 707.141L361.7 700.661L354.47 702.361L359.31 696.651L355.44 690.161L362.3 693.121L367.14 687.411L366.54 694.951L373.4 697.911L366.17 699.611L366.16 699.601ZM381.44 683.061L377.62 678.311L372.02 680.511L375.25 675.371L371.43 670.621L377.25 672.201L380.49 667.061L380.85 673.171L386.67 674.751L381.07 676.951L381.43 683.061H381.44ZM392.02 663.321L389.14 659.741L384.93 661.401L387.36 657.531L384.48 653.951L388.86 655.141L391.29 651.271L391.56 655.871L395.94 657.061L391.73 658.721L392 663.321H392.02ZM400.47 647.461L398.11 644.531L394.66 645.891L396.66 642.721L394.3 639.791L397.89 640.761L399.89 637.591L400.11 641.361L403.7 642.331L400.25 643.691L400.47 647.461ZM406.96 633.471L405.49 631.641L403.34 632.491L404.58 630.521L403.11 628.691L405.35 629.301L406.59 627.321L406.73 629.671L408.97 630.281L406.82 631.131L406.96 633.481V633.471ZM410.86 621.651L409.74 622.091L410.39 621.061L409.63 620.111L410.79 620.431L411.44 619.401L411.51 620.621L412.67 620.941L411.55 621.381L411.62 622.601L410.86 621.651Z" fill="currentColor"/>
<path d="M177.6 471.271L164.54 505.241C164.54 505.241 278.7 517.441 380.63 474.521C380.63 474.521 280.43 501.291 177.6 471.271ZM204.41 501.661L198.59 496.031L191.36 499.901L194.99 492.551L189.17 486.921L197.24 488.011L200.87 480.661L202.22 488.691L210.29 489.781L203.06 493.651L204.41 501.681V501.661ZM231.16 501.871L226.05 497.491L220.24 501.061L222.89 494.791L217.78 490.411L224.53 490.911L227.18 484.641L228.7 491.221L235.45 491.721L229.64 495.291L231.16 501.871ZM255.65 500.221L251.12 497.201L246.79 500.621L248.32 495.341L243.79 492.321L249.27 492.071L250.8 486.791L252.66 491.921L258.14 491.671L253.81 495.091L255.67 500.221H255.65ZM273.56 498.691L270.15 496.421L266.89 498.991L268.04 495.021L264.63 492.751L268.75 492.561L269.9 488.591L271.3 492.451L275.42 492.261L272.16 494.831L273.56 498.691ZM288.47 496.841L285.67 494.981L283 497.091L283.94 493.831L281.14 491.971L284.52 491.821L285.46 488.561L286.61 491.731L289.99 491.581L287.32 493.691L288.47 496.861V496.841ZM298.38 493.371L296.71 494.681L297.3 492.651L295.56 491.491L297.67 491.391L298.26 489.361L298.97 491.331L301.08 491.231L299.41 492.541L300.12 494.511L298.38 493.351V493.371Z" fill="currentColor"/>
<path d="M167.32 621.231L195.95 669.071C195.95 669.071 346.4 663.051 529.44 392.861C529.44 392.861 354.87 606.331 167.32 621.231ZM245.78 640.441L237.1 653.031L236.06 638.071L220.33 634.231L235.42 628.821L234.38 613.861L244.75 625.481L259.84 620.071L251.16 632.661L261.53 644.281L245.8 640.441H245.78ZM296.31 614.771L291.42 625.271L289.33 613.821L278.04 612.291L288.04 606.751L285.95 595.301L294.22 603.331L304.22 597.791L299.33 608.301L307.6 616.331L296.31 614.801V614.771ZM332.56 592.411L329.81 601.391L326.87 592.461L317.66 592.541L325.05 586.941L322.11 578.011L329.62 583.481L337.01 577.881L334.26 586.861L341.77 592.331L332.56 592.411ZM360.18 572.101L358.11 578.861L355.9 572.141L348.97 572.201L354.53 567.991L352.32 561.271L357.97 565.391L363.53 561.181L361.46 567.941L367.11 572.061L360.18 572.121V572.101ZM381.82 554.261L380.12 559.801L378.31 554.291L372.63 554.341L377.19 550.881L375.38 545.371L380.01 548.751L384.57 545.291L382.87 550.831L387.5 554.211L381.82 554.261ZM399.53 537.951L398.47 541.401L397.34 537.961L393.8 537.991L396.64 535.841L395.51 532.411L398.4 534.511L401.24 532.361L400.18 535.811L403.07 537.911L399.53 537.941V537.951ZM411.8 526.521L411.27 528.321L410.66 526.541L408.82 526.581L410.29 525.441L409.68 523.661L411.19 524.741L412.66 523.601L412.13 525.401L413.64 526.481L411.8 526.521Z" fill="currentColor"/>
<path d="M847.94 464.431H657.06C645.423 464.431 635.99 473.864 635.99 485.501C635.99 497.138 645.423 506.571 657.06 506.571H847.94C859.577 506.571 869.01 497.138 869.01 485.501C869.01 473.864 859.577 464.431 847.94 464.431Z" stroke="currentColor" stroke-width="7.06" stroke-miterlimit="10"/>
<path d="M635.99 657.541H788.92" stroke="currentColor" stroke-width="6.68" stroke-linecap="round" stroke-linejoin="round"/>
<path d="M635.99 582.061H864.18" stroke="currentColor" stroke-width="7.06" stroke-linecap="round" stroke-linejoin="round"/>
<path d="M635.99 733.021H749.03" stroke="currentColor" stroke-width="6.68" stroke-linecap="round" stroke-linejoin="round"/>
</g>
<defs>
<linearGradient id="paint0_linear_1_2" x1="-162.7" y1="-179.02" x2="813.66" y2="820.96" gradientUnits="userSpaceOnUse">
<stop offset="0.29" stop-color="#03005C"/>
<stop offset="0.36" stop-color="#08015B"/>
<stop offset="0.44" stop-color="#160459"/>
<stop offset="0.52" stop-color="#2F0956"/>
<stop offset="0.62" stop-color="#511152"/>
<stop offset="0.72" stop-color="#7D1B4D"/>
<stop offset="0.81" stop-color="#B22646"/>
<stop offset="0.91" stop-color="#EA3340"/>
</linearGradient>
<linearGradient id="paint1_linear_1_2" x1="-156.55" y1="-95.8891" x2="811.64" y2="895.731" gradientUnits="userSpaceOnUse">
<stop offset="0.29" stop-color="#03005C"/>
<stop offset="0.36" stop-color="#08015B"/>
<stop offset="0.44" stop-color="#160459"/>
<stop offset="0.52" stop-color="#2F0956"/>
<stop offset="0.62" stop-color="#511152"/>
<stop offset="0.72" stop-color="#7D1B4D"/>
<stop offset="0.81" stop-color="#B22646"/>
<stop offset="0.91" stop-color="#EA3340"/>
</linearGradient>
<clipPath id="clip0_1_2">
<rect width="1024" height="1024" fill="white"/>
</clipPath>
</defs>
</svg>
